<?xml version="1.0" encoding="utf-8"?>
<!-- Generator: Adobe Illustrator 23.0.0, SVG Export Plug-In . SVG Version: 6.00 Build 0)  -->
<svg version="1.1" id="Layer_1" xmlns="http://www.w3.org/2000/svg" xmlns:xlink="http://www.w3.org/1999/xlink" x="0px" y="0px"
	 viewBox="0 0 434.1 434.1" style="enable-background:new 0 0 434.1 434.1;" xml:space="preserve">
<style type="text/css">
	.st0{fill:#FC490B;}
	.st1{fill:#F69924;}
	.st2{fill:#812D7E;}
	.st3{fill:#CC2137;}
	.st4{fill:#BD2248;}
	.st5{fill:#B12053;}
	.st6{fill:#EA7826;}
	.st7{fill:#892A79;}
	.st8{fill:#C7213D;}
	.st9{fill:#A9215A;}
	.st10{fill:#E2662E;}
	.st11{fill:#D74833;}
	.st12{fill:#E66F2B;}
	.st13{fill:#DF5B30;}
	.st14{fill:#DB5233;}
	.st15{fill:url(#SVGID_1_);}
	.st16{fill:url(#SVGID_2_);}
</style>
<path class="st1" d="M260.5,45.4c9-12.1,19.1-23,31.6-31.6c2.7,0,5.5,0,8.2,0c17.2,10.9,22.8,26.8,17.5,49.4
	c-12.5,1.7-25.1,3.3-37.6,5.2c-4,0.6-7.7,0-9.7-3.2C266.7,58.9,261.4,53.2,260.5,45.4z"/>
<path class="st2" d="M115.1,419.8c4.4-8.2,6.4-17.2,9.2-26c4.8-15.2,9.8-30.3,14.8-45.4c2.3-7.1,4.8-14.2,7.2-21.3
	c-3.6-1.5-6.9-0.5-10.3-0.5c-1.6,0-3.5,0.6-4.1-1.3c-0.8-2.7,1.8-2.6,3.3-3.3c1.4-0.6,2.8-1.1,4.7-1.7c-2.7-2.8-7.1-3.1-8.3-7.6
	c0.5-0.6,1.9,0,3,0.2c10.5,1.4,10.5,1.4,9.3-8.3c4.5,0.7,8,4.6,12.8,4.4c-7.8,23.5-15.7,46.9-23.5,70.4c-3.3,9.9-6.4,19.8-9.3,29.8
	c-1.5,5.2-3.2,10.3-6.2,14.8C113.6,424.8,115.5,421.6,115.1,419.8z"/>
<path class="st3" d="M211.2,186.6c5.5-14.1,12-27.8,19.2-41.2c7.9-0.5,16.1,0.1,23.7-1.8c6.3-1.5,13.5,1.8,18.9-3.8
	c5.2,1.8,9.3-3,15.2-2.5c-6.1,16.3-10.7,32.7-28.1,41.9c4.9,1.8,7.6-2.5,12.3-2.3c-4.7,10.2-11.8,17.3-20.9,22.6
	c1,1.4,2.5,0.4,3.6,0.9c1.8-0.7,8.5-2.1,8.9-2.2c-2.4,3.9-4.6,6.5-6.1,9c-4.9,0.4-7.4-5.1-10.8-5.6
	C233.7,199.5,223.5,190.6,211.2,186.6z"/>
<path class="st4" d="M252.2,222.3c-3.9,9.7-8.2,19.2-14.6,27.6c-3.6,1.9-6.8,0.8-10.3-0.9c-11.7-5.9-23.3-12.1-36-15.9
	c4-11.2,8.6-22.2,13.7-32.9C221.3,206.4,237.2,213.4,252.2,222.3z"/>
<path class="st3" d="M179.9,172.4c9.1-19.7,19.7-38.7,31.3-57.1c4,4.2,5.9,9.6,8.6,14.6c2.2,4.2,3.9,8.7,8.1,11.5
	c-6.8,14.2-13.5,28.4-20.3,42.6C197.7,181.7,189.4,175.5,179.9,172.4z"/>
<path class="st5" d="M191.3,233.1c12.7,3.7,24.3,10,36,15.9c3.4,1.7,6.7,2.8,10.3,0.9c-5.8,10.1-13.6,18.2-23.2,24.8
	c-10.4-6.5-21.1-12.4-33.2-15.3C183.9,250.4,187.5,241.7,191.3,233.1z"/>
<path class="st6" d="M260.5,45.4c1,7.8,6.2,13.5,10,19.8c2,3.2,5.6,3.8,9.7,3.2c12.5-2,25.1-3.5,37.6-5.2
	c-1.5,11.9-6.1,22.7-12,33.1c0.5-4.4-2.7-5.7-5.9-7.2c-6.4-2.9-12.7-5.8-19-8.9c-5.6-2.7-11.1-5.2-16.2,0.8c0-0.9-0.1-1.8-0.1-2.7
	c2.5-6.2-0.4-9.3-6.1-11.4c-3.8-1.4-7.3-3.5-10.9-5.3C251.4,55.7,255.6,50.3,260.5,45.4z"/>
<path class="st7" d="M182.5,289.6c0.1,0.8-0.3,1.5,1.2,1.7c13.5,1.5,25.7-1.7,36.4-10.1c0.5-0.4,1.2-0.6,1.8-0.8
	c0.1-0.1,0.4,0.2,1.2,0.5c-6.2,12.9-16.3,21.2-29.5,26.4c4.2,2.7,4.1,2.6,9.5,0.2c1.2-0.5,2.9-2.2,4.3-0.5c1.5,1.8-0.7,2.8-1.6,3.8
	c-3.5,3.9-7.3,7.6-12.4,9.4c-0.1-1.7-0.9-3-2.5-3.7c-8.9-4-17.8-8-26.6-12c1.5-4.1,2.9-8.2,4.4-12.4
	C173.3,291.3,177.9,290.5,182.5,289.6z"/>
<path class="st4" d="M158.2,226.4c2.8-9.9,6.3-19.4,10.5-28.8c1.3,0.5,2.6,0.8,3.8,1.4c8,3.7,17.2,4.9,23.3,12.3
	c-4,9.3-7.9,18.6-11.9,27.9C176.6,232.2,167.7,228.8,158.2,226.4z"/>
<path class="st8" d="M195.7,211.3c-6-7.4-15.3-8.6-23.3-12.3c-1.2-0.6-2.5-0.9-3.8-1.4c2.9-8.1,6.2-16,10.4-23.5
	c0.9-0.3,1.4-0.7,0.8-1.7c0,0,0-0.1,0-0.1c9.5,3.2,17.8,9.3,27.6,11.7C203.6,193.1,199.7,202.2,195.7,211.3z"/>
<path class="st9" d="M182.5,289.6c-4.6,0.9-9.2,1.7-13.8,2.6c3.6-11.2,7.6-22.1,12.4-32.8c12.1,2.9,22.8,8.8,33.2,15.3
	C204.9,282.1,194.5,287.6,182.5,289.6z"/>
<path class="st7" d="M156.9,308.9c-4.9,0.3-8.3-3.6-12.8-4.4c-3.6-9.3-7.6-18.4-14.6-28.2c7.7,2.2,10.9,7.6,15.9,11.1
	c1.8-8.6,1.4-17.3,4.2-25.5c3.5,0.2,3.9,3.2,5.3,5.5c3.8,6.3,5.6,13.8,10.8,19.3C162.4,294.1,160.9,302,156.9,308.9z"/>
<path class="st8" d="M252.2,222.3c-15-8.9-30.9-15.9-47.1-22.1c1.7-4.6,3.3-9.4,6.1-13.5c12.4,3.9,22.5,12.9,35.9,15
	c3.4,0.5,5.9,6,10.8,5.6C256.8,212.6,254.5,217.4,252.2,222.3z"/>
<path class="st10" d="M301.7,104.3c-2,5-4.7,9.6-8,13.8c-4.5-2.1-9.3-3.8-13.6-6.2c-8.3-4.6-17.6-7.2-25.2-13.1
	c0.5-0.9,1-1.8,1.5-2.7c0.4-0.6,0.8-1.2,1.3-1.8c0.5-2.6,2.1-4.6,3.6-6.7c3.8-0.1,6.8,2.3,10.1,3.5
	C281.8,94.9,290.8,101.8,301.7,104.3z"/>
<path class="st11" d="M272.9,139.9c-5.4,5.5-12.6,2.2-18.9,3.8c-7.6,1.9-15.8,1.3-23.7,1.8c3.4-8.6,7.7-16.7,12.4-24.7
	c2.3,1,4.7,1.8,6.9,3c8.7,4.7,18.4,7.6,26.4,13.7C275,138.3,274,139.1,272.9,139.9z"/>
<path class="st9" d="M165.6,286.8c-5.2-5.5-7-13-10.8-19.3c-1.3-2.2-1.8-5.3-5.3-5.5c0.3-6.2,1.9-12,3.9-17.8
	c8.2,3.2,16.3,6.8,24,11.2C173.5,265.9,169.6,276.4,165.6,286.8z"/>
<path class="st12" d="M301.7,104.3c-10.9-2.5-19.9-9.4-30.3-13.2c-3.4-1.2-6.3-3.6-10.1-3.5c1.2-2.2,2.4-4.4,3.5-6.6
	c5.1-6,10.6-3.5,16.2-0.8c6.3,3.1,12.7,5.9,19,8.9c3.1,1.4,6.4,2.7,5.9,7.2C305.2,99.3,303.6,101.9,301.7,104.3z"/>
<path class="st13" d="M254.9,98.8c7.5,6,16.9,8.5,25.2,13.1c4.3,2.4,9.1,4.2,13.6,6.2c-1.6,3.6-3.6,7-6.6,9.7
	c-12.2-3.7-22.9-10.8-34.8-15.3c-1.6-0.6-2.5-1.9-3-3.5C250.4,105.2,252.6,101.9,254.9,98.8z"/>
<path class="st5" d="M177.5,255.5c-7.7-4.5-15.7-8-24-11.2c0.5-6.2,2.9-11.9,4.7-17.8c9.5,2.4,18.4,5.8,25.7,12.7
	C181.7,244.6,179.6,250,177.5,255.5z"/>
<path class="st2" d="M164.3,304.6c8.9,4,17.7,8,26.6,12c1.6,0.7,2.4,2,2.5,3.7c-10.5,6.1-22.2,6.2-34.6,6.7c2.2,3.3,5.6,5,5.2,8.9
	c-8-3.2-9.1-5.3-6.5-12.8C159.8,316.8,162.1,310.7,164.3,304.6z"/>
<path class="st11" d="M227.9,141.4c-4.2-2.8-5.8-7.4-8.1-11.5c-2.7-5-4.6-10.4-8.6-14.6c1.8-2.8,3.5-5.5,5.3-8.3
	c8.4,2.6,16.9,5,23.6,11.3C236,126,231.9,133.7,227.9,141.4z"/>
<path class="st14" d="M249.2,109c0.5,1.6,1.4,2.9,3,3.5c11.9,4.5,22.6,11.6,34.8,15.3c-2.7,4.4-6.3,7.6-11,9.7
	c-8-6.1-17.7-9-26.4-13.7c-2.2-1.2-4.6-2-6.9-3C244.4,116.6,246.5,112.7,249.2,109z"/>
<path class="st10" d="M231.6,85c1.7-5.6,5.8-9.8,9.4-14.2c0.2,2,1.4,2.8,3.3,3.7c5.7,2.5,11.2,5.4,16.8,8.2
	c-2.8,4.6-5.6,9.1-8.4,13.7C246,91.9,237.2,91.5,231.6,85z"/>
<path class="st13" d="M231.6,85c5.5,6.5,14.4,6.9,21.1,11.3c-1.9,3.2-3.8,6.3-5.7,9.5c-8.5-1.6-15.8-6.1-23.5-9.7
	C225.9,92.2,227.6,87.7,231.6,85z"/>
<path class="st14" d="M223.5,96.1c7.7,3.6,15.1,8,23.5,9.7c-2.3,4.2-3.8,8.8-6.9,12.5c-6.7-6.3-15.2-8.7-23.6-11.3
	C218.3,103.1,220.7,99.5,223.5,96.1z"/>
<path class="st12" d="M261.1,82.6c-5.6-2.7-11.1-5.6-16.8-8.2c-1.8-0.8-3.1-1.6-3.3-3.7c1.5-3.6,4-6.4,6.6-9.2
	c3.6,1.8,7.1,4,10.9,5.3c5.7,2,8.5,5.2,6.1,11.4C263.5,79.7,262.3,81.2,261.1,82.6z"/>
<path class="st13" d="M257.6,94.3c-0.4,0.6-0.8,1.2-1.3,1.8C256.8,95.5,257.2,94.9,257.6,94.3z"/>
<path class="st3" d="M179.9,172.5c0.6,1,0.1,1.4-0.8,1.7C179.4,173.6,179.7,173,179.9,172.5z"/>
</svg>
