<?xml version="1.0" encoding="utf-8"?>
<!-- Generator: Adobe Illustrator 23.0.0, SVG Export Plug-In . SVG Version: 6.00 Build 0)  -->
<svg version="1.1" id="Layer_1" xmlns="http://www.w3.org/2000/svg" xmlns:xlink="http://www.w3.org/1999/xlink" x="0px" y="0px"
	 viewBox="0 0 434.1 434.1" style="enable-background:new 0 0 434.1 434.1;" xml:space="preserve">
<style type="text/css">
	.st0{fill:#FC490B;}
	.st1{fill:#F69924;}
	.st2{fill:#812D7E;}
	.st3{fill:#CC2137;}
	.st4{fill:#BD2248;}
	.st5{fill:#B12053;}
	.st6{fill:#EA7826;}
	.st7{fill:#892A79;}
	.st8{fill:#C7213D;}
	.st9{fill:#A9215A;}
	.st10{fill:#E2662E;}
	.st11{fill:#D74833;}
	.st12{fill:#E66F2B;}
	.st13{fill:#DF5B30;}
	.st14{fill:#DB5233;}
	.st15{fill:url(#SVGID_1_);}
	.st16{fill:url(#SVGID_2_);}
</style>
<linearGradient id="SVGID_1_" gradientUnits="userSpaceOnUse" x1="162.4205" y1="207.9659" x2="217.5694" y2="358.0936">
	<stop  offset="0.2258" style="stop-color:#2684FF"/>
	<stop  offset="1" style="stop-color:#0457D1"/>
</linearGradient>
<path class="st15" d="M414.1,304.1c0,0,0.1,0,0.1,0c-0.2-1.2-0.6-2.4-1.9-2.9c-0.5-1.3-1.4-2.2-2.8-2.5
	c-12.6-7.2-25.8-12.9-39.1-18.7c-8.8-5-18-9.2-27.3-13c-0.3,0.2-0.6,0.5-0.9,0.7v0c0.3-0.2,0.6-0.5,0.9-0.7c-0.5-0.3-1-0.6-1.5-0.9
	c-1.4-0.6-2.9-1.2-4.3-1.9c-1.6-1.6-3.5-2.5-5.8-2.8c-4-2.6-8.3-4.7-12.8-6.1c-7.7-4.7-16.1-8.2-24.6-11.2
	c-20.7-9.8-42.4-16.4-64.7-21c-60.4-12.5-114.6-0.8-161,41.3c-20,18.2-36.2,39.5-50.5,62.4c-5.3,8.5-9.7,17.6-16.1,25.3
	c0,2.9,0,5.8,0,8.6c3.1,5.2,7.1,9.3,13,11.3v0c6.3,4.6,13,8.7,19.9,12.3c11.6,7.7,23.2,15.2,35.5,21.7l0.1,0
	c0.6,0.5,1.2,0.9,1.8,1.4c8.6,5.4,17.1,11.2,25.9,16.2c7,4,14.3,2.1,18.6-4.7c4.8-7.5,9-15.3,13.4-23c0.6-1,1.3-2,1.9-3
	c0,0,0,0-0.1,0c0.4-0.6,0.8-1.2,1.1-1.7c0,0,0,0,0,0c0.6-0.9,1.2-1.7,1.8-2.6c0,0,0,0-0.1,0c0.4-0.6,0.8-1.1,1.2-1.7
	c0.6-0.8,1.2-1.6,1.8-2.5l0,0c0.6-0.7,1.1-1.4,1.7-2.1c0.4-0.2,0.6-0.5,0.6-1c0.7-0.9,1.4-1.7,2.1-2.6c0,0,0-0.1,0-0.1
	c0.4-0.5,0.8-1,1.2-1.5c0,0,0,0,0,0c0.5-0.5,0.9-1.1,1.4-1.6c0,0,0,0,0,0c0.5-0.5,0.9-1,1.4-1.5c0,0,0.1,0,0.1,0
	c17.3-18.3,38.3-24.4,62.8-19.3c2.1,1,4.5,0.9,6.7,1.5c13.7,3.4,26,10.5,39.3,14.9c1,0.4,1.9,0.9,2.9,1.3c0.5,0.3,1,0.6,1.5,0.9
	c0.5,0.2,0.9,0.3,1.4,0.5c0.9,1.4,2.4,1.6,3.9,1.9c0,0,0.1,0,0.1,0c2.6,2,5.6,3.4,8.8,4.2c0,0,0,0,0,0c4,2.9,8.6,4.8,13.2,6.5
	c21.6,10.4,43.1,20.8,64.7,31.1c10,4.8,17.6,2.3,21.4-8c6.4-17.2,15.4-33.1,22.3-50.1c6.2-15.5,14.1-30.3,19.7-46.1
	C416.6,310,416.1,307,414.1,304.1z M135.9,386.8c-0.1,0-0.2,0-0.2,0.1C135.7,386.9,135.8,386.9,135.9,386.8L135.9,386.8z
	 M412.3,302.2c0,0.5,0.1,0.9,0.4,1.3C412.5,303.2,412.3,302.7,412.3,302.2z"/>
<linearGradient id="SVGID_2_" gradientUnits="userSpaceOnUse" x1="162.3211" y1="16.569" x2="217.47" y2="166.6967" gradientTransform="matrix(-1 0 0 -1 434.147 241.6333)">
	<stop  offset="0.2258" style="stop-color:#2684FF"/>
	<stop  offset="1" style="stop-color:#0457D1"/>
</linearGradient>
<path class="st16" d="M20.1,128.9c0,0-0.1,0-0.1,0c0.2,1.2,0.6,2.4,1.9,2.9c0.5,1.3,1.4,2.2,2.8,2.5c12.6,7.2,25.8,12.9,39.1,18.7
	c8.8,5,18,9.2,27.3,13c0.3-0.2,0.6-0.5,0.9-0.7v0c-0.3,0.2-0.6,0.5-0.9,0.7c0.5,0.3,1,0.6,1.5,0.9c1.4,0.6,2.9,1.2,4.3,1.9
	c1.6,1.6,3.5,2.5,5.8,2.8c4,2.6,8.3,4.7,12.8,6.1c7.7,4.7,16.1,8.2,24.6,11.2c20.7,9.8,42.4,16.4,64.7,21
	c60.4,12.5,114.6,0.8,161-41.3c20-18.2,36.2-39.5,50.5-62.4c5.3-8.5,9.7-17.6,16.1-25.3c0-2.9,0-5.8,0-8.6c-3.1-5.2-7.1-9.3-13-11.3
	v0c-6.3-4.6-13-8.7-19.9-12.3C388,41.1,376.3,33.5,364,27l-0.1,0c-0.6-0.5-1.2-0.9-1.8-1.4c-8.6-5.4-17.1-11.2-25.9-16.2
	c-7-4-14.3-2.1-18.6,4.7c-4.8,7.5-9,15.3-13.4,23c-0.6,1-1.3,2-1.9,3c0,0,0,0,0.1,0c-0.4,0.6-0.8,1.2-1.1,1.7c0,0,0,0,0,0
	c-0.6,0.9-1.2,1.7-1.8,2.6c0,0,0,0,0.1,0c-0.4,0.6-0.8,1.1-1.2,1.7c-0.6,0.8-1.2,1.6-1.8,2.5l0,0c-0.6,0.7-1.1,1.4-1.7,2.1
	c-0.4,0.2-0.6,0.5-0.6,1c-0.7,0.9-1.4,1.7-2.1,2.6c0,0,0,0.1,0,0.1c-0.4,0.5-0.8,1-1.2,1.5c0,0,0,0,0,0c-0.5,0.5-0.9,1.1-1.4,1.6
	c0,0,0,0,0,0c-0.5,0.5-0.9,1-1.4,1.5c0,0-0.1,0-0.1,0c-17.3,18.3-38.3,24.4-62.8,19.3c-2.1-1-4.5-0.9-6.7-1.5
	c-13.7-3.4-26-10.5-39.3-14.9c-1-0.4-1.9-0.9-2.9-1.3c-0.5-0.3-1-0.6-1.5-0.9c-0.5-0.2-0.9-0.3-1.4-0.5c-0.9-1.4-2.4-1.6-3.9-1.9
	c0,0-0.1,0-0.1,0c-2.6-2-5.6-3.4-8.8-4.2c0,0,0,0,0,0c-4-2.9-8.6-4.8-13.2-6.5c-21.6-10.4-43.1-20.8-64.7-31.1
	c-10-4.8-17.6-2.3-21.4,8C54.9,40.9,45.8,56.8,39,73.7c-6.2,15.5-14.1,30.3-19.7,46.1C17.6,123,18.1,126,20.1,128.9z M298.3,46.2
	c0.1,0,0.2,0,0.2-0.1C298.5,46.2,298.4,46.2,298.3,46.2L298.3,46.2z M21.9,130.8c0-0.5-0.1-0.9-0.4-1.3
	C21.8,129.8,21.9,130.3,21.9,130.8z"/>
</svg>
