<?xml version="1.0" encoding="utf-8"?>
<!-- Generator: Adobe Illustrator 23.0.0, SVG Export Plug-In . SVG Version: 6.00 Build 0)  -->
<svg version="1.1" id="Layer_1" xmlns="http://www.w3.org/2000/svg" xmlns:xlink="http://www.w3.org/1999/xlink" x="0px" y="0px"
	 viewBox="0 0 434.1 434.1" style="enable-background:new 0 0 434.1 434.1;" xml:space="preserve">
<style type="text/css">
	.st0{fill:#FC490B;}
	.st1{fill:#F69924;}
	.st2{fill:#812D7E;}
	.st3{fill:#CC2137;}
	.st4{fill:#BD2248;}
	.st5{fill:#B12053;}
	.st6{fill:#EA7826;}
	.st7{fill:#892A79;}
	.st8{fill:#C7213D;}
	.st9{fill:#A9215A;}
	.st10{fill:#E2662E;}
	.st11{fill:#D74833;}
	.st12{fill:#E66F2B;}
	.st13{fill:#DF5B30;}
	.st14{fill:#DB5233;}
	.st15{fill:url(#SVGID_1_);}
	.st16{fill:url(#SVGID_2_);}
	.st17{fill:#FC6D26;}
	.st18{fill:#FCA326;}
	.st19{fill:#8A4182;}
	.st20{fill:#262223;}
	.st21{fill:#EED4B6;}
	.st22{fill:#335060;}
	.st23{fill:#FDFDFD;}
	.st24{fill:#D13833;}
	.st25{fill:#487089;}
	.st26{fill:#FBFBFB;}
	.st27{fill:#F4E1CA;}
	.st28{fill:#6D6B6D;}
	.st29{fill:#D9D6D5;}
	.st30{fill:#EB3C39;}
	.st31{fill:#80ADC1;}
	.st32{fill:#D7D4D3;}
	.st33{fill:#292424;}
	.st34{fill:url(#SVGID_3_);}
	.st35{fill:#2684FF;}
	.st36{fill:#3DBEAE;}
	.st37{fill:#349B8B;}
	.st38{fill:#FFFFFF;}
	.st39{fill:#99CDC5;}
</style>
<g>
	<path class="st20" d="M232.2,423.2c-12.7,0.1-24.2-0.6-35.4-3.8c-2.1-0.6-3.3-1.6-4-3.7c-4.3-11.7-7.7-23.6-11.1-35.6
		c-0.6-2.2-1.4-3.1-3.9-2.9c-9.9,0.7-18.9-2.7-27.7-6.8c-7.3-3.4-14.4-7.3-22-10c-4.2-1.5-6.1-4.5-6.2-9c-0.2-6.2-0.5-12.4-0.8-18.7
		c-0.1-1.9-0.8-3.2-2.2-4.5c-27.3-25.1-43.6-56.1-47.3-93c-5.1-50.7,11.3-93.4,49-127.9c1.5-1.3,2.3-2.6,2.4-4.7
		c0.3-5.5,1.2-10.8,3.4-15.9c2-4.6,4.8-8.5,9.3-11c1.1-0.6,1.8-1.4,2.2-2.6c2.1-7.3,6.3-13.3,12.5-17.6c18.1-12.7,37.2-23.4,59.4-27
		c18.8-3.1,37.8-2.7,54.9,6.1c24.5,12.5,40.9,32,45.1,60.2c0.4,2.7,1.3,5.4,1.1,8.1c-0.4,6.4,2.9,10.5,6.9,15
		c31.4,34.4,43.7,75,38.1,121.2c-2.3,18.4-8.2,35.7-17.2,51.8c-0.8,1.5-1.3,2.4,0.7,3.5c2.8,1.5,4.5,4.1,5.8,6.9
		c3.3,7.5,6.1,15.2,7.8,23.2c1.9,9.5-0.4,18.4-5.4,26.6c-3.3,5.4-8.9,6.4-14.5,7c-6.1,0.7-12.2,0.3-18.3-0.8c-1.6-0.3-3-0.9-3.7-2.4
		c-1.1-2.5-3-2.6-5.3-2.6c-4.6,0.1-9.1,0.7-13.5,2.3c-1.6,0.6-2.6,1.3-2.6,3.2c-0.1,2.4-1.8,3.8-3.9,4.3c-2.5,0.6-2.8,2.2-2.9,4.3
		c-0.2,5.1,1.2,9.9,2.3,14.8c0.8,3.5,1.7,7,1.7,10.6c0,5-1.9,7.8-6.5,9.5c-1.8,0.7-3.8,1.2-5.7,1.5c-2.5,0.4-3.4,1.3-3.2,4
		c0.7,9.9-2.7,13.7-12.9,14.8C249.3,422.7,240.3,423.4,232.2,423.2z M180.2,230.3c4.2,3.4,9.2,4.7,14.2,5.9c1.8,0.4,2.4-0.3,2.2-2.1
		c1.9-5.5,1.9-5.4-4-6c-4.2-0.4-8.5-0.4-12.6-1.9c-0.8-0.3-1.7-1.5-2.5-0.2c-0.7,1.1,0.1,2.1,0.8,2.9
		C178.9,229.5,179.6,229.9,180.2,230.3z M261,225.6c-1.2-0.1-2.4,0.2-3.6,0.4c-7.6,1.5-15.1,4.6-23.8,1.2
		C242.5,234.9,252.8,236,261,225.6c0.1-0.1,0.3-0.1,0.5-0.2C261.3,225.5,261.2,225.5,261,225.6z M290.9,71.1c0.3,0,0.7,0.2,0.7,0.1
		c0.3-0.3-0.1-0.4-0.3-0.6c-1.5-2.6-3.3-4.9-5.4-7.1c-4.3-5.9-8.9-11.4-15.4-15.2c-6.2-4.2-13.1-6.8-20.3-8.8
		c-13.7-3.9-27.7-6.1-41.4-0.2c-10,4.3-19.1,10-27.4,17c-5,4.2-9.4,8.8-12.5,14.6c-0.5,1-1.4,2-0.8,3.3c2.4,5.6,1.9,11.5,1.5,17.4
		c-0.9,4-1.6,8.1-2.6,12.1c-2,8-2,15.9,0.6,23.9c0.9,2.8,1.5,5.7,1.6,8.7c0.1,1.2-0.2,2.1-1.2,2.8c-3.2,2.2-6.8,2.7-10.3,2.2
		c-2.7-0.4-1.4-3.7-2.5-5.4c-0.1-0.1-0.1-0.2-0.2-0.3c-2.2-7.9-6.6-11.6-13.3-10.9c-8.5,0.8-15.4,7.9-15.9,16.5
		c-0.4,8.1,2.2,15.2,7.3,21.4l0,0c0.2,0.2,0.4,0.5,0.6,0.7c6,7.4,12.1,8.3,19.5,3c1.6-1.2,3.3-2.1,5.4-1.7c1.3,3.2-0.3,5.5-2.6,7.4
		c-2.7,2.3-3.2,5-2.5,8.2c2.3,10.6,6.2,20.6,11.6,29.9c4.4,7.6,11.3,11.1,19.7,12.3c4.3,1.3,8.8,1.2,13.2,1.8c0.9,0.1,1.6-0.1,2.2-1
		c1.4-2,3.6-2.6,6-3c2.8-0.5,5.6,0,8.4,0.1c-0.1-0.3-0.1-0.4-0.1-0.5c-0.6-0.4-1.3-0.8-1.9-1.2c-10-7.1-18.2-16-24.6-26.4
		c-1.6-2.6-2.7-5.6-2.6-9.5c1.6,2.1,2.7,3.7,3.9,5.2c5.5,7.5,11.1,14.9,18.4,20.8c14,11.2,29.5,16.5,47.3,10.2
		c9.6-3.4,19.2-7.3,25.7-15.6c9.4-11.9,16.4-25.1,20.5-39.9c5.1-18.6,5.6-37.5,4.1-56.6c-0.4-4.9-0.9-9.8-2.4-14.5
		c-2.7-8.6-12-14.8-20.3-13.9c-2.3,0.3-4.1,2-6.4,2.1c0.5-1.5-0.3-2.9,0.8-4.6C280.6,70.8,285.5,70.4,290.9,71.1z M145.2,73
		c3.1-0.4,6.1-1.6,8.9-2.9c2.1,0,4.1-0.3,6.2,0c3.8,0.5,6.4-1,8.4-4.2c3.3-5.3,6.2-11,11.6-14.6c0.1-0.1,0.1-0.4,0.2-0.6
		c2.4-0.8,3.9-3.1,6.4-3.9c1.2-0.4,2.5-1,2-2.5c-0.6-1.6-2.1-1.2-3.4-0.8c-11.7,3.7-22.4,9.1-31.6,17.3c-3.7,3.3-7.3,6.9-9.1,11.8
		c-0.1,0.1-0.4,0.3-0.4,0.4C144.7,73.4,145,73.3,145.2,73z M267.2,263.8c0.1-1.3,0.3-2.6,0.4-3.9c0-0.6,0.1-1.4-0.9-1.4
		c-3.1-0.2-5.4-2.1-7.8-3.8c-2.3-1.6-4.5-1.8-7-0.5c-1.8,1-3.7,1.7-5.9,1.3c-1.9-0.3-3.8,2.8-2.7,4.2c6.7,8.8,10.5,19.1,14.9,29
		c1.6,3.4,2.9,7,5.3,10.5c0.4-2,0.7-3.6,1.1-5.2C266.9,284,267,273.9,267.2,263.8z M287.9,342.5c0.3,8.4,0.2,8.3,8,5.5
		c2.1-0.7,1.9-1.9,1.9-3.4c-0.1-1.8-0.2-3.7-0.2-5.5c-0.2-2.4-0.2-4.8-0.5-7.2c-0.8-6.1-1.9-12.1-4.6-17.7c-0.9-1.8-7.6-2.9-8.8-1.5
		c-0.3,0.3-0.3,1-0.2,1.5C285,323.7,286.4,333.1,287.9,342.5z M284.1,230.1c-1.4-4.9-3.7-6.3-8.4-5c-1.4,0.4-2.7,0.9-3.9,1.6
		c-4.2,2.5-8.3,5.2-12.5,7.8c-1.9,1.2-0.5,2.4-0.3,3.7c0.2,1.3,0.7,1.8,2.2,1.6c2.1-0.3,4.2-0.1,6.2,1.3c-1.9,0.3-3.5,0.7-5.1,0.9
		c-1.8,0.3-2.7,1.7-2.2,3c0.8,2-1.8,5.4,2.2,6.2c6.1,1.7,12.4,2.1,18.6,2.8c3.5,0.4,4.6-1.4,5-4.3
		C287,242.9,286.1,236.4,284.1,230.1z M276.6,323.3c-0.4-2.4-0.8-4.9-1.3-7.3c-0.2-0.8-0.2-1.8-1.1-2.2c-1-0.6-8.9,0.4-9.9,1.1
		c-0.8,0.6-0.7,1.3-0.7,2c0,3.3,0.1,6.5,0.1,9.8c-0.3,9.9,1,19.7,1.3,29.6c0,1.6,0.6,1.7,2,1.4c3.2-0.6,6.4-1.1,9.6-1.5
		c2.5-0.3,3-1.6,2.8-3.8C278.4,342.7,277.5,333,276.6,323.3z M206.7,263c0.3,0.9,0.6,1.9,0.9,2.8c1.3,4,2.1,4.5,6.2,3.5
		c0.7-0.2,1.5-0.4,2.2-0.6c9.1-2.3,16.1-7.9,23.1-13.8c2.1-1.8,3.5-3.4,2.8-6.3c0.2-1.8-1.4-1.7-2.4-2.1c-2.4-0.8-4.9-1.4-7.8-2.1
		c3-0.9,5.7-1.6,8.3-2.4c0.8-0.2,1.4-0.7,1.3-1.6c0-1.1-0.9-1.2-1.6-1.3c-2.3-0.4-4.3-1.5-6.3-2.7c-6.8-4.1-14-7-21.7-8.8
		c-5.5-1.3-8.1,0.3-9,5.8C200.9,243.6,202.2,253.5,206.7,263z M163.9,79.9c-0.4-4.6-0.5-4.6-4.8-3.9c-5.6,0.8-10.7,2.8-15.5,5.9
		c-6.2,4.1-10.6,9.3-11.8,16.9c-1,6.5-0.5,13.1,0,19.6c0.2,2.7,1.3,1.1,2.1,0.3c1.2-0.3,2.3-0.6,3.5-0.9c10.6-3,22.1,3.9,23.8,14.1
		c0.1,0.8-0.6,2.3,1.1,2.1c1.2-0.1,1.9-1.1,2.1-2.2c0.1-0.9,0.1-2-0.2-2.9c-4-10.9-2.5-21.8-0.6-32.9
		C164.6,90.8,165.4,85.4,163.9,79.9z M343.7,322.1c-0.8-5.4-2.2-10.6-4.4-15.6c-3.2-7.1-9-9-15.9-5.6c-3.4,1.6-7,2.8-10.6,4.1
		c-3.7,1.4-7.7,2.4-11,4.7c-1.3,1-3.6,1.2-2.9,3.9c2.6,9.9,3.3,20,4.1,30.1c0.2,2.2,1.1,2.7,3.1,2.6c5.1-0.3,10.2-0.6,15.4-0.8
		c3.4-0.1,6.8-0.3,10.6,1.4c-5.6,2.1-11.3,1.6-16.7,4.6c6,1.9,11.5,1.3,17,0.4c6.8-1.1,10.8-5.3,12.7-11.7
		C347,334,345.7,328,343.7,322.1z M312.8,239.4c1.1-5.3-1.1-9.1-5.4-11.9c-0.5-0.3-0.8-0.7-1.3-1c-6.2-4.7-11-10.9-17-15.7
		c-0.7-0.6-1.4-2-2.4-1.2c-2.7,2.2-5.2,4.6-7.8,6.9c5.2-0.1,7.4,3.2,9.7,6.5c3.2,9.5,3.8,19.2,1.3,28.9c-0.9,3.5-0.7,6.1,2.2,8.5
		c1.5,1.2,2,2.6,0.8,4.6c-5.5,9-11,18.1-16.4,27.1c-2.5,4.1-4.9,8.3-7.8,13.2c4.9-1.9,9-1.6,13.1-1.6c6.8,0.1,11.2-2.4,13.9-9.2
		C302.6,276.4,309.4,258.4,312.8,239.4z M80.1,234.8c0,0.4-0.1,0.9,0,1.3c3.2,23.3,11.3,44.8,25.1,64c4.1,5.7,8.5,11.3,13.8,16.1
		c0.8-1.3,0.5-2.4,0.3-3.4c-1.5-11.6-3.7-23-8-34c-3.9-9.9-7.9-19.9-10.5-30.3c-1.5-5.8-0.1-9.2,5.2-11.9
		c6.2-3.1,11.7-7.2,17.6-10.7c9-5.4,18.1-10.6,27.1-15.9c4.1-2.4,4.7-4.8,2.5-9c-0.5-1.1-1.2-2.1-1.8-3.1
		c-3.2-4.9-5.3-10.2-5.9-16.1c-0.1-1.7-0.9-2.3-2.6-2.8c-8-2.1-14-6.9-18.1-14.1c-4.7-8.4-6.5-17.5-6.3-27.1
		c0.9-4.7,1.6-9.4,4.6-13.5c1.7-2.2,0.9-4.9,0.1-8.1C89.9,149.3,75.4,188.5,80.1,234.8z M234.1,414.7c7.9,0.5,15.6-0.4,23.3-2
		c7-1.4,7-1.5,6.3-8.3c0-0.3,0-0.7-0.1-1c-2.1-17.6-1.3-35.3-3.2-52.9c-1.1-10.1-0.7-20.3-1.8-30.4c-0.8-7-0.1-5.3-6.7-6.5
		c-2.4-0.3-4.8-0.6-7.2-0.8c-21.2-1.6-42.1,0.9-62.9,4.4c-2,0.3-2.4,0.9-2.2,2.9c1.1,9.8,2.4,19.5,4,29.2
		c3.2,19.7,7.7,39.1,13.8,58.2c0.4,1.2,0.7,2.1,2.2,2.5C210.9,413.2,222.3,415.1,234.1,414.7z M168,227.6c-2.3-3.3-5.1-6.2-7.8-9.3
		c-1.3-1.6-2.6-1.7-4.5-0.9c-16.5,7-30.9,17.4-45.1,28.2c-1.4,1-1.3,2-0.7,3.4c1.7,3.9,3.3,7.8,4.8,11.8
		c10,27.6,13.7,56.4,14.9,85.5c0.1,2.7,1.2,3.9,3.4,4.7c6.7,3.4,13.3,6.9,20,10.2c7.8,3.8,16,6.1,24.6,7.3c3.5,0.5,3.8,0.2,3.4-3.3
		c-1.1-8.8-2.2-17.6-3.4-26.4c-0.6-4.7-1.3-9.4-1.9-14.1c0-0.8,0.1-1.5,0-2.3c-0.1-4.4-0.5-4.9-4.9-4.9c-2.9-0.1-5.9,0.1-8.8,0.1
		c-1.8,0-3.7,0.7-5.3-0.7c0.7-2.5,2.8-3.1,4.9-3.7c4.2-1.2,4.5-2.1,2.1-5.8c-0.5-0.7-1.1-1.4-1.1-2.3c0-0.8-0.3-1.7,0.4-2.2
		c0.7-0.5,1.5,0.1,2.1,0.6c1.8,1.4,3.7,2.6,5.7,3.8c1.9,1.1,2.7,0.7,3.1-1.4c1.2-5.9,0.7-11.9,0.3-17.9c-0.4-4.9-0.9-9.7,0.3-14.6
		c0.3-1.1,0.9-2.1,2-2.3c1.3-0.3,1.4,1.1,1.9,1.8c0,10.2-1.2,20.4-0.8,30.7c0.3,6.1,0.6,6.5,6.6,6c19.4-2.6,38.9-4.1,58.5-4.9
		c-1.1-0.8-2.2-1.5-3.4-1.9c-8.1-3-15.6-7.3-23.3-11.1c-5.6-2.8-6.3-6-2.9-11.3c1-1.5,2.4-2.8,2.6-4.8c0.1-0.1,0.2-0.2,0.3-0.3
		c-0.1,0.1-0.2,0.2-0.3,0.3c-6.5,1.7-9.4,0.2-11.8-6.2c-2.7-7.1-4.8-14.4-6.3-21.9c-0.5-2.7-1.7-3.8-3.9-4.9
		C184.9,238.1,175.5,234.5,168,227.6z M311.7,123.9c-0.1,10.5-1,20.1-2.8,29.6c-2.5,13.2-5.2,26.3-12.1,38.1
		c-5.2,8.8-4.9,9.6,3.1,16.3c5.4,4.6,10.8,9.2,16.1,14c3.5,3.2,6.3,6.8,5.4,12c-0.4,2.1-0.8,4.3-1.4,6.4
		c-6.1,19.4-11.7,38.9-18.9,57.9c-0.2,0.6-0.9,1.3,0,2.1c0.7-0.3,1.5-0.7,2.3-1.1c7.4-3.5,14.9-6.8,23.2-7.4
		c1.1-0.1,1.8-0.6,2.3-1.6c0.8-1.4,1.6-2.8,2.4-4.3c15.8-29.2,20.7-60.3,14.9-92.9C341.5,167,330,144.1,311.7,123.9z M256.5,299.4
		c-1.1-2.6-2.2-5.2-3.3-7.8c-3.9-9.3-8.1-18.4-13.8-26.7c-1.3-1.9-2.3-2.1-4.1-0.7c-2.7,2.2-5.7,4-8.5,6.1
		c-3.7,2.9-6.5,6.4-8.3,10.8c-0.8,1.8-0.5,2.8,1.4,3.8c6.6,3.5,13.1,6.9,20,9.8c4.8,2,9.7,3.8,14.6,5.6
		C255.2,300.5,256.5,301.2,256.5,299.4z M266.8,299.2c0.7-0.4,0.9-0.5,1.1-0.7c7.7-10.2,13.8-21.4,20.2-32.4c0.5-0.9,0.6-1.5,0-2.4
		c-2.6-4.4-9.3-7-14.3-5.4c-1.5,0.5-2.2,1.1-2.2,2.7C271.3,273.7,269.9,286.4,266.8,299.2z M265.8,377.3c0.1,0,0.2,0,0.3,0
		c0.2,3.7,0.3,7.4,0.6,11.1c0.8,8.8,0.8,8.7,9.4,6.1c2.8-0.8,3.4-2.3,3.2-4.9c-0.5-6.5-2.1-12.9-3.3-19.3c-1.4-6.9-1.4-6.8-8.3-5.1
		c-1.5,0.4-2,0.8-1.9,2.3C265.8,370.7,265.8,374,265.8,377.3z M255.1,244.2c0-2.8-1.1-5-2.9-6c-2.2-1.3-4.3-0.5-6.2,0.6
		c-2.2,1.3-0.9,3.3-0.7,5c0.1,0.9,0.4,1.7,0.6,2.5c0.8,3.1,2.1,3.8,5.1,2.9C253.8,248.5,254.8,246.4,255.1,244.2z"/>
	<path class="st21" d="M155,135.7c0.1,0.1,0.1,0.2,0.2,0.3c1.1,1.7-0.2,5,2.5,5.4c3.5,0.5,7.2,0,10.3-2.2c1-0.7,1.3-1.6,1.2-2.8
		c-0.1-3-0.7-5.9-1.6-8.7c-2.6-7.9-2.5-15.8-0.6-23.9c1-4,1.7-8.1,2.6-12.1c1.3-0.7,1.5-2.1,2.1-3.2c2.9-5.9,6-11.6,10.2-16.7
		c8.9-10.8,19.9-18.4,33.5-22.2c6.9-1.9,14-3.1,21.1-3.6c7-0.5,14.2-0.8,21.2,0.3c4.3,0.7,8.6,1.3,12.8,2
		c6.4,3.7,11.1,9.3,15.4,15.2c-1.1,1-2.6,0.9-3.9,1.3c-5.9,2.2-8.9,6.9-8.6,13c0.1,1.9,0.8,2.8,2.8,2.6c2.3-0.1,4-1.9,6.4-2.1
		c8.4-0.9,17.6,5.3,20.3,13.9c1.5,4.7,2,9.6,2.4,14.5c1.5,19.1,1,37.9-4.1,56.6c-4.1,14.8-11.1,28-20.5,39.9
		c-6.5,8.3-16.1,12.2-25.7,15.6c-17.8,6.3-33.2,1-47.3-10.2c-7.3-5.9-12.9-13.3-18.4-20.8c-1.1-1.6-2.3-3.1-3.9-5.2
		c0,3.9,1,6.8,2.6,9.5c6.4,10.5,14.6,19.3,24.6,26.4c0.6,0.4,1.3,0.8,1.9,1.2c0.1,0,0.1,0.2,0.1,0.5c-2.8-0.1-5.6-0.6-8.4-0.1
		c-2.3,0.5-4.5,1.1-6,3c-0.6,0.8-1.3,1.1-2.2,1c-4.4-0.6-8.9-0.5-13.2-1.8c-2.6-3.2-5.5-6.2-7.9-9.5c-9-12.3-12.9-26.4-14.5-41.4
		c-0.3-2.7,0.1-6.2-3.9-7c-2.1-0.4-3.8,0.6-5.4,1.7c-7.4,5.3-13.5,4.4-19.5-3c-0.2-0.2-0.4-0.5-0.6-0.7c0,0,0,0,0,0
		c-0.7-3.6-1.5-7.1-1.4-10.9c0.1-4.2,1.9-8,2-12.1c0.7-0.7,1.3-1.4,2.1-2c0.8-0.7,1.9-1,2.7-0.4c1.1,0.7,0,1.6-0.2,2.3
		c-0.8,3.1-1,6.3-0.5,9.4c0.3,2.5,0.6,5.1,3.2,7.3c0-3.6-0.2-6.6,0.1-9.7c0.2-2.7,0.1-6,3.4-6.7c3.4-0.8,3.9,2.6,5.2,4.8
		c1,1.6,1.3,3.9,3.5,4.8c1.1-6.3-0.8-11.4-5.2-15.5C150.6,133.5,152.5,135.8,155,135.7z M294.8,112.4c0.2,0.5,0.5,1,0.7,1.5
		c1.5,3.5,1.4,3.8-2.4,4.3c-2.3,0.3-4.6,0.3-6.8,0.6c-1.3,0.2-3.1-0.2-3.5,1.6c-0.4,1.7,0.5,3.2,1.8,4.3c1.4,1.2,3.1,1.5,4.9,1.5
		c3.8,0,7.3-1.3,10.4-3.4c3.5-2.5,3.6-3.1,1.5-6.7c-1-1.7-1.9-3.4-2.8-5.2c-1.9-3.8-3.7-7.7-5.5-11.6c-0.2,0-0.3,0.1-0.5,0.1
		c-0.1,1.2-0.1,2.3-0.2,3.5c-4.5,0.9-7.3,3.7-8.8,7.8c-1.1,3.2,0.5,5.1,3.8,4.7C290.1,115.1,292.7,114.2,294.8,112.4z M193.4,95
		c0.3,1.3,0.7,2.9,2.1,3c1.4,0.1,1.3-1.7,2-2.6c1.1-1.7,2.1-3.6,3.3-5.2c4.6-6.2,10.7-9,18.4-8.2c1,0.1,2.3,1.3,3.2-0.3
		c0.9-1.6,0.5-3.2-0.6-4.5c-0.8-0.9-1.8-1.5-2.7-2.3c-1.8-2.9-4-4.9-7.8-4.8c-8.5,0.2-19,9.6-19.6,18.1
		C191.4,90.6,190.8,93.3,193.4,95z M233.6,116.7c1,1.3,2.8,2.9,2.1,4.4c-0.9,1.8-3.4,1.7-5.4,1.7c-3,0-5.8-0.7-8.7-1.2
		c-1.2-0.2-2.6-1-3.4,0.8c-0.8,1.6-0.8,3.2,0.5,4.6c0.7,0.8,1.7,1.4,2.7,1.8c4.7,1.8,9.6,2.1,14.5,0.7c7-2,8.6-8.3,3.3-13.2
		c-3-2.8-4.9-6.1-6.4-9.7c-0.9-2.2-1.5-4.7-3.5-6.9c-0.1,1.4-0.3,2.3-0.4,3.3c-2.7,0.4-5.3,1.2-7.6,2.6c-2.7,1.5-4.3,3.9-3.9,6.9
		c0.4,3.1,2.8,4.3,5.9,5.1C226.9,118.5,230.1,116.9,233.6,116.7z M250.7,158c2.3-1.8,4.6-3.6,6.9-5.3c1-0.7,1.4-1.3,0.9-2.6
		c-0.7-1.9-2.1-3-3.8-3.7c-1.3-0.5-2,0.5-2.6,1.4c-1.4,2.1-1.9,4.5-2.2,7c-2.5,1.8-3.3,5.8-1.8,9.9c1.1,2.8,2.6,4.5,6.2,4.6
		c10.8,0.2,20.2-3.4,29.4-8.6c3.9-2.2,6.5-4.8,7.6-9.3c0.9-3.7,0.7-6.3-2.4-9.2c-9-8.5-16.7-18.1-22.8-29c-1.2-2.1-1.8-4.4-2.5-6.7
		c-0.3-1-0.9-1.9-2.1-1.6c-1,0.2-1,1.1-0.9,1.8c0.3,2.2,0.5,4.3,1,6.5c2,8.2,6.7,14.8,11.9,21.2c3.1,3.8,6.4,7.4,9.4,11.3
		c3.4,4.4,2.2,8.7-2.8,11c-2.2,1-4.3,2.1-6.5,3.1c-4.8,2.1-9.6,4.2-15,4.3C253.2,164.3,251.8,163.3,250.7,158z M250.7,199.5
		c6.5,0,11.3-0.5,16.1-2c1.8-0.5,3.1-1.5,4.2-2.9c0.5-0.7,1.4-1.4,1.1-2.2c-0.4-1-1.6-0.4-2.4-0.4c-5.2,0-10.5,0.4-15.7,0
		c-10.6-0.7-21.2-1.6-26.9-12.8c-0.8-1.5-2.3-0.8-3.4-0.2c-1.4,0.8-0.4,1.8,0.2,2.4c1.9,2,3.9,3.9,5.3,6.3
		C234.4,196.5,242.1,200.4,250.7,199.5z M228.8,169.9c2.1,4.8,5.6,7.3,9.7,9.2c7.1,3.4,14.8,4.6,22.6,4.6c7,0,5.9,1.6,5.9-6.2
		c0-2.3-0.9-3.1-3.3-3.1C251.9,174.7,240.3,174.3,228.8,169.9z M295.4,164c-2.3,1.2-4.6,2.4-6.9,3.7c-4.4,2.3-8.9,4.9-13.9,5.5
		c-3.9,0.4-4.7,2.2-4.4,5.7c0.4,4.6,0.4,4.8,4.9,3.9C285.5,180.6,291.2,173.2,295.4,164z M219.4,172.5c-5.2,0-6.3,1.3-5.3,5.8
		c0.4,1.6,0.8,3.2,1,4.8c0.2,1.5,1.2,2.3,2.4,2.2c1.5-0.1,0.9-1.5,0.8-2.4c-0.1-3.3,1.1-6,3.5-8.1c1.6-1.4,0.5-1.8-0.6-2.1
		C220.4,172.4,219.5,172.5,219.4,172.5z"/>
	<path class="st22" d="M175.8,324.7c0.6,4.7,1.3,9.4,1.9,14.1c1.1,8.8,2.3,17.6,3.4,26.4c0.4,3.5,0.1,3.8-3.4,3.3
		c-8.6-1.2-16.8-3.5-24.6-7.3c-6.7-3.3-13.4-6.8-20-10.2c0.9-0.4,1.3-1.1,1.4-2.1c0.4-4.6,1.2-9.3,1.2-13.9
		c0.1-6.3-0.6-12.6-1.2-18.9c-0.9-10.6-2.6-21.1-4.4-31.6c-1.9-11.1-4.2-22.2-6.9-33.1c-0.8-3.2,0.5-4.2,3-5.2
		c14-6.1,27.9-12.4,41.8-18.6c7.5,6.9,16.9,10.5,25.9,14.9c2.2,1.1,3.3,2.2,3.9,4.9c1.5,7.4,3.6,14.8,6.3,21.9
		c2.4,6.4,5.3,7.9,11.8,6.2l0,0c-0.1,2-1.6,3.3-2.6,4.8c-3.5,5.3-2.8,8.5,2.9,11.3c7.7,3.8,15.2,8.1,23.3,11.1
		c1.2,0.4,2.3,1.1,3.4,1.9c-19.6,0.8-39.1,2.3-58.5,4.9c0-8.1-0.4-16.1,0.2-24.2c0.4-5.6-2.3-9.1-6-12.5c-0.5-0.7-0.6-2.1-1.9-1.8
		c-1.2,0.2-1.8,1.2-2,2.3c-1.2,4.8-0.6,9.7-0.3,14.6c0.4,6,0.9,11.9-0.3,17.9c-0.4,2-1.3,2.5-3.1,1.4c-2-1.2-3.9-2.4-5.7-3.8
		c-0.6-0.4-1.4-1.1-2.1-0.6c-0.6,0.5-0.4,1.4-0.4,2.2c0,1,0.6,1.6,1.1,2.3c2.4,3.7,2.1,4.6-2.1,5.8c-2.2,0.6-4.2,1.3-4.9,3.7
		c-0.8,0.2-1.8-0.4-2.4,0.8c3.3,2.5,6.3,5.1,10.9,5.2C168.7,323,172.2,324,175.8,324.7z"/>
	<path class="st23" d="M234.1,414.7c-11.8,0.3-23.3-1.5-34.6-4.6c-1.5-0.4-1.8-1.3-2.2-2.5c-6.1-19-10.6-38.5-13.8-58.2
		c-1.6-9.7-2.9-19.4-4-29.2c-0.2-2,0.2-2.6,2.2-2.9c20.8-3.6,41.7-6,62.9-4.4c2.4,0.2,4.8,0.5,7.2,0.8c0.3,19-0.5,38,1.3,56.9
		c1,10.4,1.8,20.8,3.8,31c0.4,2,0,3.2-1.8,4.3c-2.8,1.7-6,2.7-8.9,4.1C242.3,412,237.9,412.4,234.1,414.7z"/>
	<path class="st24" d="M118.6,137.7c-0.1,9.6,1.6,18.7,6.3,27.1c4.1,7.2,10,12,18.1,14.1c1.7,0.4,2.4,1.1,2.6,2.8
		c0.5,5.9,2.7,11.2,5.9,16.1c0.7,1,1.3,2,1.8,3.1c2.1,4.2,1.5,6.6-2.5,9c-9,5.4-18.1,10.6-27.1,15.9c-5.9,3.5-11.4,7.6-17.6,10.7
		c-5.3,2.7-6.7,6.1-5.2,11.9c2.6,10.4,6.6,20.3,10.5,30.3c4.4,11,6.5,22.4,8,34c0.1,1,0.5,2.1-0.3,3.4c-5.4-4.8-9.7-10.4-13.8-16.1
		c-13.8-19.2-21.9-40.6-25.1-64c-0.1-0.4,0-0.9,0-1.3c0.2-0.5,0.5-1,0.5-1.5c0.9-8.2,1.6-16.4,3.3-24.5
		c4.4-21.9,11.6-42.6,25.1-60.7C111.8,144.3,114,139.9,118.6,137.7z"/>
	<path class="st24" d="M311.7,123.9c18.4,20.2,29.9,43.1,34.5,69.2c5.8,32.6,0.9,63.7-14.9,92.9c-0.8,1.4-1.6,2.8-2.4,4.3
		c-0.5,0.9-1.2,1.5-2.3,1.6c-8.3,0.7-15.8,3.9-23.2,7.4c-0.8,0.4-1.6,0.7-2.3,1.1c-0.9-0.8-0.3-1.5,0-2.1
		c7.2-19,12.8-38.5,18.9-57.9c0.7-2.1,1-4.2,1.4-6.4c0.9-5.2-1.9-8.8-5.4-12c-5.3-4.8-10.6-9.4-16.1-14c-7.9-6.7-8.2-7.5-3.1-16.3
		c7-11.8,9.6-25,12.1-38.1C310.7,144,311.6,134.4,311.7,123.9z"/>
	<path class="st25" d="M168,227.6c-13.9,6.2-27.9,12.4-41.8,18.6c-2.5,1.1-3.8,2-3,5.2c2.7,11,5,22,6.9,33.1
		c1.8,10.5,3.5,21,4.4,31.6c0.5,6.3,1.2,12.6,1.2,18.9c0,4.7-0.8,9.3-1.2,13.9c-0.1,1-0.5,1.6-1.4,2.1c-2.2-0.8-3.3-2-3.4-4.7
		c-1.3-29.1-4.9-57.9-14.9-85.5c-1.4-4-3.1-7.9-4.8-11.8c-0.6-1.4-0.6-2.3,0.7-3.4c14.1-10.8,28.6-21.1,45.1-28.2
		c1.9-0.8,3.2-0.7,4.5,0.9C162.9,221.4,165.7,224.2,168,227.6z"/>
	<path class="st22" d="M312.8,239.4c-3.5,19.1-10.2,37.1-17.2,55.1c-2.6,6.8-7.1,9.3-13.9,9.2c-4.1-0.1-8.3-0.4-13.1,1.6
		c2.9-4.9,5.3-9.1,7.8-13.2c5.4-9.1,10.9-18.1,16.4-27.1c1.2-1.9,0.7-3.4-0.8-4.6c-2.9-2.3-3.1-5-2.2-8.5c2.5-9.7,1.9-19.4-1.3-28.9
		c5.3,2.7,9.5,7,14.5,10.2C306.3,235.3,308.8,238.6,312.8,239.4z"/>
	<path class="st26" d="M301.8,309.7c3.4-2.3,7.3-3.3,11-4.7c3.6-1.3,7.2-2.5,10.6-4.1c6.9-3.4,12.7-1.5,15.9,5.6
		c2.2,5,3.6,10.2,4.4,15.6c-0.9,0.8-1.1,1.8-1.2,2.9c-0.4,4.1-2,7.8-3.3,11.6c-0.8,2.4-2.5,2.9-4.6,2.5c-6.7-1.2-13.5-0.2-20.2-1.2
		c-2.6-0.4-5.7,0.7-7.7-0.4c-2.4-1.3-1.5-4.9-1.9-7.5C303.7,323.2,302.1,316.5,301.8,309.7z M325.2,310.5
		c-7.1,0.3-13.6,2.1-18.8,8.5C314.4,318.7,319.1,313.1,325.2,310.5z M333.1,333.7c-6.3-3.7-18.5-4.1-22-0.6
		C318.4,333.7,325.7,333.9,333.1,333.7z M311.4,323.5c6.6,0.7,13,0.1,19.4-1.1C324.2,321,317.6,319,311.4,323.5z M326.7,310
		c-0.1,0-0.2,0-0.2-0.1c0.1,0,0.2-0.1,0.3-0.1C326.8,309.9,326.8,310,326.7,310z"/>
	<path class="st27" d="M270.6,48.4c-4.3-0.7-8.6-1.3-12.8-2c-7.1-1.2-14.2-0.8-21.2-0.3c-7.1,0.5-14.2,1.7-21.1,3.6
		c-13.6,3.8-24.5,11.4-33.5,22.2c-4.2,5.1-7.3,10.8-10.2,16.7c-0.6,1.1-0.8,2.5-2.1,3.2c0.4-5.9,0.9-11.8-1.5-17.4
		c-0.6-1.4,0.3-2.3,0.8-3.3c3.1-5.8,7.5-10.4,12.5-14.6c8.3-7,17.5-12.8,27.4-17c13.7-5.9,27.7-3.6,41.4,0.2
		C257.5,41.6,264.4,44.2,270.6,48.4z"/>
	<path class="st28" d="M163.9,79.9c1.5,5.4,0.7,10.9-0.2,16.2c-1.9,11-3.4,22,0.6,32.9c0.3,0.9,0.3,1.9,0.2,2.9
		c-0.1,1.2-0.9,2.1-2.1,2.2c-1.7,0.1-1-1.3-1.1-2.1c-1.7-10.3-13.3-17.2-23.8-14.1c-1.1,0.3-2.3,0.6-3.5,0.9
		c-1.9-11.8-0.1-22.5,9.5-30.6C149.4,83.2,156.5,81.1,163.9,79.9z"/>
	<path class="st29" d="M234.1,414.7c3.7-2.3,8.2-2.8,12.1-4.7c2.9-1.5,6.1-2.4,8.9-4.1c1.8-1.1,2.2-2.3,1.8-4.3
		c-2-10.2-2.9-20.6-3.8-31c-1.7-19-1-37.9-1.3-56.9c6.7,1.2,6-0.5,6.7,6.5c1.1,10.1,0.7,20.3,1.8,30.4c2,17.6,1.2,35.3,3.2,52.9
		c0,0.3,0,0.7,0.1,1c0.7,6.9,0.7,6.9-6.3,8.3C249.8,414.3,242,415.2,234.1,414.7z"/>
	<path class="st24" d="M241.8,248.6c0.7,2.8-0.7,4.5-2.8,6.3c-6.9,5.9-14,11.5-23.1,13.8c-0.7,0.2-1.5,0.4-2.2,0.6
		c-4.1,1-4.8,0.6-6.2-3.5c-0.3-0.9-0.6-1.9-0.9-2.8c1.1-2.3,0.5-4.7,0.3-7c-0.5-5.4-1.3-10.8-1-16.2c0.1-2.1,1.1-3.9,3.1-4
		c6.5-0.5,13.1-0.8,19.3,1.8c2.1,0.9,3.2,2.5,2,4.7c-1.2,2-0.1,3,1.2,4.1C234.6,248.8,238.2,248.7,241.8,248.6z"/>
	<path class="st30" d="M118.6,137.7c-4.5,2.2-6.8,6.6-9.6,10.4c-13.5,18.1-20.6,38.9-25.1,60.7c-1.6,8.1-2.4,16.3-3.3,24.5
		c-0.1,0.5-0.4,1-0.5,1.5c-4.7-46.2,9.8-85.4,43.2-118.6c0.8,3.3,1.6,5.9-0.1,8.1C120.1,128.3,119.4,133,118.6,137.7z"/>
	<path class="st31" d="M256.5,299.4c0,1.9-1.3,1.1-2,0.9c-4.9-1.8-9.8-3.6-14.6-5.6c-6.9-2.8-13.4-6.3-20-9.8c-1.9-1-2.2-2-1.4-3.8
		c1.8-4.4,4.6-7.9,8.3-10.8c2.7-2.1,5.7-4,8.5-6.1c1.8-1.4,2.9-1.1,4.1,0.7c5.7,8.3,9.9,17.4,13.8,26.7
		C254.3,294.1,255.4,296.7,256.5,299.4z"/>
	<path class="st32" d="M301.8,309.7c0.4,6.8,2,13.5,3,20.3c0.4,2.6-0.5,6.2,1.9,7.5c2,1.1,5.1,0.1,7.7,0.4c6.7,1,13.5,0,20.2,1.2
		c2.1,0.4,3.8-0.1,4.6-2.5c1.3-3.8,2.9-7.5,3.3-11.6c0.1-1.1,0.3-2.2,1.2-2.9c2,5.9,3.4,12,1.4,18.2c-2,6.3-5.9,10.6-12.7,11.7
		c-5.5,0.9-11,1.5-17-0.4c5.4-3,11.1-2.5,16.7-4.6c-3.8-1.8-7.2-1.5-10.6-1.4c-5.1,0.1-10.2,0.4-15.4,0.8c-2,0.1-2.9-0.4-3.1-2.6
		c-0.8-10.1-1.6-20.2-4.1-30.1C298.2,310.9,300.4,310.7,301.8,309.7z"/>
	<path class="st27" d="M158.7,164.6c4,0.8,3.6,4.3,3.9,7c1.6,14.9,5.5,29,14.5,41.4c2.4,3.3,5.3,6.3,7.9,9.5
		c-8.4-1.1-15.3-4.6-19.7-12.3c-5.4-9.4-9.4-19.3-11.6-29.9c-0.7-3.2-0.2-6,2.5-8.2C158.3,170.2,159.9,167.8,158.7,164.6z"/>
	<path class="st22" d="M276.6,323.3c0.9,9.7,1.8,19.4,2.8,29.1c0.2,2.2-0.3,3.5-2.8,3.8c-3.2,0.3-6.5,0.8-9.6,1.5
		c-1.4,0.3-2,0.1-2-1.4c-0.3-9.9-1.6-19.7-1.3-29.6C268.4,327.1,272.3,324.3,276.6,323.3z"/>
	<path class="st24" d="M284.1,230.1c2,6.4,2.9,12.8,1.9,19.5c-0.5,3-1.5,4.7-5,4.3c-6.3-0.6-12.5-1-18.6-2.8c-0.8-4.8-0.8-4.9,3.8-6
		c3.4-0.9,4.3-3.1,4.1-6.3c-0.2-5.6,0.5-6,6-7.3C278.9,230.9,281.7,231.6,284.1,230.1z"/>
	<path class="st31" d="M266.8,299.2c3.1-12.8,4.4-25.5,4.8-38.2c0-1.6,0.8-2.2,2.2-2.7c5-1.6,11.7,1,14.3,5.4c0.5,0.9,0.5,1.5,0,2.4
		c-6.4,11-12.5,22.2-20.2,32.4C267.8,298.7,267.5,298.7,266.8,299.2z"/>
	<path class="st30" d="M241.8,248.6c-3.6,0.2-7.2,0.2-10.2-2.3c-1.3-1.1-2.4-2.1-1.2-4.1c1.2-2.2,0.1-3.8-2-4.7
		c-6.2-2.7-12.8-2.3-19.3-1.8c-2.1,0.2-3,2-3.1,4c-0.2,5.4,0.6,10.8,1,16.2c0.2,2.4,0.8,4.7-0.3,7c-4.5-9.4-5.8-19.4-4-29.6
		c0.9-5.5,3.6-7.1,9-5.8c7.7,1.8,14.9,4.7,21.7,8.8c2,1.2,3.9,2.3,6.3,2.7c0.7,0.1,1.6,0.2,1.6,1.3c0,0.9-0.6,1.4-1.3,1.6
		c-2.6,0.8-5.2,1.5-8.3,2.4c2.9,0.8,5.4,1.3,7.8,2.1C240.4,246.8,242,246.8,241.8,248.6z"/>
	<path class="st32" d="M265.8,377.3c0-3.3,0.1-6.5,0-9.8c0-1.5,0.5-1.9,1.9-2.3c6.9-1.7,6.9-1.8,8.3,5.1c1.3,6.4,2.8,12.8,3.3,19.3
		c0.2,2.6-0.4,4-3.2,4.9c-8.6,2.6-8.6,2.7-9.4-6.1c-0.3-3.7-0.4-7.4-0.6-11.1C266,377.3,265.9,377.3,265.8,377.3z"/>
	<path class="st27" d="M133.8,139.7c-0.2,4.1-1.9,7.9-2,12.1c-0.1,3.7,0.7,7.3,1.4,10.9c-5.1-6.2-7.7-13.4-7.3-21.4
		c0.5-8.6,7.4-15.6,15.9-16.5c6.6-0.6,11.1,3,13.3,10.9c-2.5,0.1-4.4-2.1-7-1.8c-2.5-1.4-5-2.6-8-2.2
		C136,132.2,133,136.1,133.8,139.7z"/>
	<path class="st25" d="M312.8,239.4c-4-0.8-6.5-4.1-9.7-6.1c-4.9-3.2-9.2-7.5-14.5-10.2c-2.2-3.3-4.5-6.6-9.7-6.5
		c2.6-2.3,5.1-4.7,7.8-6.9c1-0.8,1.7,0.6,2.4,1.2c6,4.9,10.8,11.1,17,15.7c0.4,0.3,0.8,0.7,1.3,1
		C311.7,230.3,313.9,234.1,312.8,239.4z"/>
	<path class="st26" d="M287.9,342.5c-1.4-9.4-2.9-18.8-4.3-28.1c-0.1-0.5-0.1-1.2,0.2-1.5c1.2-1.5,7.9-0.3,8.8,1.5
		c2.7,5.6,3.8,11.6,4.6,17.7c0.3,2.4,0.3,4.8,0.5,7.2C294.1,339.6,291.2,341.6,287.9,342.5z"/>
	<path class="st26" d="M267.2,263.8c-0.2,10.1-0.3,20.3-2.7,30.3c-5.4-8.7-9.5-18-13.4-27.4c-1.1-2.7,0-4.5,1.8-6.3
		c1.8-1.8,3.7-1.3,5.7-0.4C261.5,261.1,264.1,263,267.2,263.8z M263.6,278.1c-0.3-1.7-1.2-2.8-3-2.8c-1.8,0.1-2.8,1.1-2.8,2.9
		c0,1.8,1.2,2.8,2.9,2.7C262.5,280.9,263.4,279.7,263.6,278.1z M260.6,264.4c-0.2-1.7-1.2-2.7-3-2.6c-1.8,0.1-2.7,1.3-2.7,3
		c0.1,1.8,1.2,2.8,2.9,2.7C259.6,267.4,260.6,266.3,260.6,264.4z"/>
	<path class="st32" d="M154.1,70.1c-2.9,1.3-5.8,2.5-8.9,2.9c-0.1-0.1-0.2-0.2-0.4-0.4c1.8-4.9,5.3-8.5,9.1-11.8
		c9.2-8.2,19.9-13.6,31.6-17.3c1.3-0.4,2.8-0.8,3.4,0.8c0.5,1.4-0.8,2.1-2,2.5c-2.5,0.7-4,3.1-6.4,3.9
		C169.8,54.6,160.9,61,154.1,70.1z"/>
	<path class="st32" d="M267.2,263.8c-3.1-0.7-5.7-2.7-8.6-3.9c-2-0.9-3.9-1.4-5.7,0.4c-1.8,1.8-3,3.6-1.8,6.3
		c3.9,9.4,8,18.7,13.4,27.4c-0.3,1.6-0.6,3.1-1.1,5.2c-2.5-3.5-3.8-7.1-5.3-10.5c-4.5-9.9-8.2-20.2-14.9-29
		c-1.1-1.4,0.8-4.4,2.7-4.2c2.2,0.3,4.1-0.4,5.9-1.3c2.5-1.3,4.7-1.1,7,0.5c2.4,1.7,4.7,3.6,7.8,3.8c1,0.1,0.9,0.8,0.9,1.4
		C267.5,261.2,267.3,262.5,267.2,263.8z"/>
	<path class="st32" d="M163.9,79.9c-7.4,1.1-14.5,3.2-20.4,8.2c-9.6,8.2-11.4,18.8-9.5,30.6c-0.8,0.8-1.9,2.4-2.1-0.3
		c-0.5-6.5-1-13.1,0-19.6c1.2-7.6,5.6-12.8,11.8-16.9c4.7-3.1,9.9-5.1,15.5-5.9C163.5,75.3,163.5,75.4,163.9,79.9z"/>
	<path class="st30" d="M284.1,230.1c-2.4,1.6-5.2,0.8-7.8,1.4c-5.5,1.2-6.2,1.7-6,7.3c0.1,3.3-0.7,5.5-4.1,6.3
		c-4.6,1.2-4.6,1.3-3.8,6c-4-0.8-1.4-4.1-2.2-6.2c-0.5-1.3,0.4-2.7,2.2-3c1.6-0.3,3.2-0.6,5.1-0.9c-2-1.4-4.1-1.6-6.2-1.3
		c-1.5,0.2-2-0.3-2.2-1.6c-0.2-1.3-1.6-2.5,0.3-3.7c4.2-2.5,8.3-5.2,12.5-7.8c1.2-0.7,2.6-1.2,3.9-1.6
		C280.5,223.8,282.8,225.2,284.1,230.1z"/>
	<path class="st25" d="M178.4,272.9c3.7,3.4,6.4,6.9,6,12.5c-0.5,8-0.2,16.1-0.2,24.2c-6,0.6-6.3,0.1-6.6-6
		C177.2,293.3,178.4,283.1,178.4,272.9z"/>
	<path class="st28" d="M154.1,70.1c6.8-9.2,15.6-15.6,26.4-19.5c-0.1,0.2,0,0.5-0.2,0.6c-5.4,3.7-8.2,9.4-11.6,14.6
		c-2,3.1-4.6,4.7-8.4,4.2C158.3,69.9,156.2,70.1,154.1,70.1z"/>
	<path class="st25" d="M276.6,323.3c-4.3,1.1-8.2,3.9-12.9,3.3c0-3.3-0.1-6.5-0.1-9.8c0-0.7-0.1-1.5,0.7-2c1-0.7,8.9-1.7,9.9-1.1
		c0.9,0.5,0.9,1.5,1.1,2.2C275.8,318.4,276.2,320.8,276.6,323.3z"/>
	<path class="st27" d="M276.3,80.6c-1.9,0.2-2.7-0.7-2.8-2.6c-0.3-6.2,2.7-10.8,8.6-13c1.3-0.5,2.8-0.4,3.9-1.3
		c2.1,2.2,3.9,4.5,5.4,7.1c-0.2,0.1-0.3,0.3-0.4,0.5c-5.4-0.7-10.4-0.4-13.9,4.9C275.9,77.7,276.8,79.1,276.3,80.6z"/>
	<path class="st25" d="M175.8,324.7c-3.5-0.6-7-1.7-10.5-1.8c-4.6-0.1-7.6-2.7-10.9-5.2c0.6-1.2,1.6-0.7,2.4-0.8
		c1.6,1.4,3.6,0.6,5.3,0.7c2.9,0.1,5.9-0.1,8.8-0.1c4.4,0.1,4.8,0.5,4.9,4.9C175.8,323.2,175.8,323.9,175.8,324.7z"/>
	<path class="st24" d="M255.1,244.2c-0.2,2.2-1.2,4.3-4.1,5.1c-3,0.9-4.4,0.1-5.1-2.9c-0.2-0.8-0.5-1.7-0.6-2.5
		c-0.1-1.7-1.5-3.7,0.7-5c1.9-1.1,4-1.9,6.2-0.6C253.9,239.2,255.1,241.4,255.1,244.2z"/>
	<path class="st21" d="M261,225.6c-8.1,10.5-18.5,9.3-27.3,1.7c8.7,3.4,16.2,0.3,23.8-1.2C258.6,225.8,259.8,225.5,261,225.6
		L261,225.6z"/>
	<path class="st26" d="M180.2,230.3c-0.6-0.4-1.3-0.8-1.8-1.3c-0.8-0.8-1.5-1.8-0.8-2.9c0.8-1.3,1.7-0.1,2.5,0.2
		c4.1,1.5,8.3,1.5,12.6,1.9c5.9,0.6,5.9,0.5,4,6c-0.8-0.1-1.5-0.1-2.3-0.2C189.6,232.7,184.9,231.5,180.2,230.3z"/>
	<path class="st32" d="M287.9,342.5c3.3-0.9,6.2-2.9,9.7-3.4c0.1,1.8,0.2,3.7,0.2,5.5c0.1,1.5,0.2,2.7-1.9,3.4
		C288.1,350.7,288.1,350.8,287.9,342.5z"/>
	<path class="st32" d="M180.2,230.3c4.7,1.2,9.4,2.4,14.1,3.6c0.7,0.2,1.5,0.2,2.3,0.2c0.2,1.7-0.4,2.5-2.2,2.1
		C189.4,235,184.4,233.7,180.2,230.3z"/>
	<path class="st21" d="M261,225.6c0.2-0.1,0.3-0.1,0.5-0.2C261.3,225.5,261.1,225.5,261,225.6C261,225.6,261,225.6,261,225.6z"/>
	<path class="st22" d="M215.8,275.5c0.1-0.1,0.2-0.2,0.3-0.3C216,275.3,215.9,275.4,215.8,275.5
		C215.8,275.5,215.8,275.5,215.8,275.5z"/>
	<path class="st27" d="M133.1,162.6c0.2,0.2,0.4,0.5,0.6,0.7C133.5,163.1,133.3,162.9,133.1,162.6z"/>
	<path class="st32" d="M145.2,73c-0.2,0.2-0.5,0.3-0.7,0c0,0,0.2-0.2,0.4-0.4C145,72.8,145.1,72.9,145.2,73z"/>
	<path class="st27" d="M291.4,70.7c0.3,0.1,0.6,0.2,0.3,0.6c-0.1,0.1-0.5-0.1-0.7-0.1C291.1,71,291.2,70.8,291.4,70.7z"/>
	<path class="st33" d="M250.7,158c1.1,5.3,2.5,6.3,7.8,6.2c5.4-0.1,10.2-2.2,15-4.3c2.2-1,4.3-2.1,6.5-3.1c5-2.3,6.2-6.7,2.8-11
		c-3-3.9-6.4-7.5-9.4-11.3c-5.2-6.4-9.9-13.1-11.9-21.2c-0.5-2.1-0.7-4.3-1-6.5c-0.1-0.8-0.1-1.6,0.9-1.8c1.3-0.3,1.8,0.6,2.1,1.6
		c0.7,2.3,1.3,4.6,2.5,6.7c6.1,10.8,13.8,20.4,22.8,29c3.1,2.9,3.3,5.5,2.4,9.2c-1.1,4.5-3.7,7.1-7.6,9.3
		c-9.2,5.2-18.6,8.8-29.4,8.6c-3.6-0.1-5.1-1.7-6.2-4.6c-1.5-4.1-0.8-8.1,1.8-9.9C250.1,155.9,250.4,157,250.7,158z"/>
	<path class="st20" d="M250.7,199.5c-8.6,0.9-16.3-3-21.6-11.8c-1.4-2.4-3.4-4.3-5.3-6.3c-0.6-0.6-1.6-1.6-0.2-2.4
		c1.1-0.7,2.6-1.4,3.4,0.2c5.7,11.2,16.3,12.1,26.9,12.8c5.2,0.3,10.5,0,15.7,0c0.8,0,1.9-0.6,2.4,0.4c0.4,0.9-0.6,1.5-1.1,2.2
		c-1.1,1.5-2.4,2.4-4.2,2.9C262,199,257.2,199.5,250.7,199.5z"/>
	<path class="st20" d="M228.8,169.9c11.5,4.5,23.1,4.8,34.8,4.5c2.5-0.1,3.3,0.7,3.3,3.1c0,7.8,1.2,6.2-5.9,6.2
		c-7.8,0-15.4-1.3-22.6-4.6C234.4,177.2,230.9,174.6,228.8,169.9z"/>
	<path class="st33" d="M228.8,102.9c0.1-0.9,0.2-1.9,0.4-3.3c2,2.2,2.6,4.6,3.5,6.9c1.6,3.7,3.5,7,6.4,9.7
		c5.3,4.9,3.7,11.2-3.3,13.2c-4.8,1.4-9.7,1.1-14.5-0.7c-1-0.4-1.9-1-2.7-1.8c-1.3-1.3-1.3-2.9-0.5-4.6c0.8-1.7,2.2-1,3.4-0.8
		c2.9,0.4,5.8,1.2,8.7,1.2c2,0,4.4,0.1,5.4-1.7c0.7-1.4-1.1-3-2.1-4.4C231.7,112.2,229.4,107.9,228.8,102.9z"/>
	<path class="st33" d="M219,74.9c0.9,0.8,1.9,1.4,2.7,2.3c1.1,1.3,1.5,2.9,0.6,4.5c-0.9,1.6-2.1,0.4-3.2,0.3
		c-7.7-0.8-13.8,2-18.4,8.2c-1.2,1.6-2.2,3.5-3.3,5.2c-0.6,0.9-0.5,2.7-2,2.6c-1.4-0.1-1.8-1.7-2.1-3c0.8-8.6,6-14.2,12.9-18.5
		C210.2,74.1,214.5,73.2,219,74.9z"/>
	<path class="st33" d="M295.4,164c-4.1,9.2-9.8,16.6-20.2,18.7c-4.5,0.9-4.6,0.7-4.9-3.9c-0.3-3.5,0.5-5.3,4.4-5.7
		c5-0.5,9.5-3.1,13.9-5.5C290.8,166.5,293.1,165.2,295.4,164z"/>
	<path class="st33" d="M292.3,102.8c0.1-1.2,0.1-2.3,0.2-3.5c0.2,0,0.3-0.1,0.5-0.1c1.8,3.9,3.7,7.7,5.5,11.6
		c0.9,1.8,1.8,3.5,2.8,5.2c2.1,3.7,2.1,4.3-1.5,6.7c-3.1,2.2-6.6,3.4-10.4,3.4c-1.8,0-3.5-0.3-4.9-1.5c-1.3-1.1-2.2-2.7-1.8-4.3
		c0.4-1.8,2.2-1.4,3.5-1.6c2.3-0.3,4.6-0.4,6.8-0.6c3.7-0.5,3.8-0.7,2.4-4.3c-0.2-0.5-0.5-1-0.7-1.5
		C293.8,109.2,292.6,106.1,292.3,102.8z"/>
	<path class="st33" d="M133.8,139.7c-0.8-3.6,2.2-7.4,6.2-8c3-0.4,5.5,0.8,8,2.2c4.5,4.2,6.4,9.2,5.2,15.5c-2.2-0.9-2.5-3.1-3.5-4.8
		c-1.3-2.1-1.8-5.6-5.2-4.8c-3.3,0.8-3.2,4.1-3.4,6.7c-0.2,3-0.1,6-0.1,9.7c-2.5-2.3-2.9-4.9-3.2-7.3c-0.4-3.1-0.3-6.3,0.5-9.4
		c0.2-0.7,1.3-1.6,0.2-2.3c-0.9-0.6-1.9-0.3-2.7,0.4C135.1,138.3,134.5,139,133.8,139.7z"/>
	<path class="st27" d="M228.8,102.9c0.6,4.9,2.9,9.3,4.8,13.7c-3.5,0.3-6.7,1.9-10.5,0.9c-3.1-0.8-5.5-2-5.9-5.1
		c-0.4-3,1.3-5.4,3.9-6.9C223.6,104.2,226.1,103.3,228.8,102.9z"/>
	<path class="st27" d="M219,74.9c-4.5-1.7-8.8-0.8-12.7,1.7c-6.9,4.3-12.1,9.9-12.9,18.5c-2.5-1.8-2-4.5-1.8-6.9
		c0.6-8.5,11.2-17.9,19.6-18.1C215,70,217.2,72,219,74.9z"/>
	<path class="st27" d="M292.3,102.8c0.3,3.3,1.5,6.4,2.4,9.6c-2.1,1.8-4.7,2.7-7.4,3c-3.4,0.4-5-1.6-3.8-4.7
		C285,106.5,287.9,103.7,292.3,102.8z"/>
	<path class="st27" d="M219.4,172.5c0.2,0,1.1,0,1.9,0.2c1,0.3,2.2,0.7,0.6,2.1c-2.4,2.1-3.6,4.8-3.5,8.1c0,0.8,0.6,2.3-0.8,2.4
		c-1.2,0.1-2.2-0.8-2.4-2.2c-0.2-1.6-0.7-3.2-1-4.8C213.1,173.8,214.2,172.5,219.4,172.5z"/>
	<path class="st27" d="M250.7,158c-0.3-1.1-0.6-2.1-0.8-3.2c0.3-2.5,0.9-4.9,2.2-7c0.6-0.9,1.3-1.9,2.6-1.4c1.8,0.6,3.1,1.7,3.8,3.7
		c0.5,1.3,0.1,1.9-0.9,2.6C255.3,154.4,253,156.2,250.7,158z"/>
	<path class="st33" d="M325.2,310.5c-6.1,2.7-10.8,8.2-18.8,8.5C311.6,312.5,318.1,310.7,325.2,310.5z"/>
	<path class="st33" d="M333.1,333.7c-7.5,0.2-14.7,0-22-0.6C314.7,329.7,326.9,330,333.1,333.7z"/>
	<path class="st33" d="M311.4,323.5c6.2-4.6,12.8-2.5,19.4-1.1C324.4,323.6,318,324.3,311.4,323.5z"/>
	<path class="st33" d="M326.7,310c0,0,0-0.1,0.1-0.1c-0.1,0-0.2,0.1-0.3,0.1C326.6,310,326.7,310,326.7,310z"/>
	<path class="st20" d="M263.6,278.1c-0.2,1.7-1.1,2.8-2.9,2.9c-1.8,0-2.9-0.9-2.9-2.7c0-1.8,1-2.8,2.8-2.9
		C262.4,275.2,263.3,276.4,263.6,278.1z"/>
	<path class="st20" d="M260.6,264.4c0,1.9-1,3-2.7,3.1c-1.7,0.1-2.9-1-2.9-2.7c-0.1-1.7,0.9-2.9,2.7-3
		C259.4,261.7,260.4,262.7,260.6,264.4z"/>
</g>
</svg>
