<?xml version="1.0" encoding="utf-8"?>
<!-- Generator: Adobe Illustrator 23.0.0, SVG Export Plug-In . SVG Version: 6.00 Build 0)  -->
<svg version="1.1" id="Layer_1" xmlns="http://www.w3.org/2000/svg" xmlns:xlink="http://www.w3.org/1999/xlink" x="0px" y="0px"
	 viewBox="0 0 434.1 434.1" style="enable-background:new 0 0 434.1 434.1;" xml:space="preserve">
<style type="text/css">
	.st0{fill:#FC490B;}
	.st1{fill:#F69924;}
	.st2{fill:#812D7E;}
	.st3{fill:#CC2137;}
	.st4{fill:#BD2248;}
	.st5{fill:#B12053;}
	.st6{fill:#EA7826;}
	.st7{fill:#892A79;}
	.st8{fill:#C7213D;}
	.st9{fill:#A9215A;}
	.st10{fill:#E2662E;}
	.st11{fill:#D74833;}
	.st12{fill:#E66F2B;}
	.st13{fill:#DF5B30;}
	.st14{fill:#DB5233;}
	.st15{fill:url(#SVGID_1_);}
	.st16{fill:url(#SVGID_2_);}
	.st17{fill:#FC6D26;}
	.st18{fill:#FCA326;}
	.st19{fill:#8A4182;}
	.st20{fill:url(#SVGID_5_);}
	.st21{fill:#2684FF;}
	.st22{fill:#3DBEAE;}
	.st23{fill:#349B8B;}
	.st24{fill:#FFFFFF;}
	.st25{fill:#99CDC5;}
</style>
<polygon class="st22" points="21.1,76.8 218.3,5.2 218.3,430.5 50.9,337.4 "/>
<polygon class="st23" points="415.4,76.8 218.3,5.2 218.3,430.5 385.6,337.4 "/>
<g>
	<polygon class="st24" points="103.4,185 130.2,277.7 167.6,209.6 144.1,231.4 	"/>
	<polygon class="st25" points="167.6,209.6 191,297.8 154.7,253.7 130.2,277.7 	"/>
	<polygon class="st24" points="183.8,185 183.8,133.1 232.3,133.1 232.3,178.4 265.2,133.1 316.8,133.1 233.4,258.2 233.4,303.9 
		218.3,303.9 	"/>
	<polygon class="st25" points="236.4,253.7 263.8,212.7 325.5,303.9 270.8,303.9 	"/>
</g>
</svg>
