<svg id="Layer_3" enable-background="new 0 0 64 64" height="512" viewBox="0 0 64 64" width="512" xmlns="http://www.w3.org/2000/svg"><path d="m10 50h9l3-5 1 5h31v-36h-9l-3 5-1-5h-31" fill="#f5b953"/><path d="m10 39.604c1.951.255 3.953.396 6 .396 19.108 0 34.63-11.596 34.983-26h-5.983l-3 5-1-5h-31z" fill="#f9d18b"/><g fill="#8892a0"><path d="m4 12v-3.669c0-2.172.643-4.295 1.847-6.102l.153-.229.153.229c1.204 1.807 1.847 3.93 1.847 6.102v3.669"/><path d="m4 52v3.669c0 2.172.643 4.295 1.847 6.102l.153.229.153-.229c1.204-1.807 1.847-3.93 1.847-6.102v-3.669"/><path d="m56 12v-3.669c0-2.172.643-4.295 1.847-6.102l.153-.229.153.229c1.204 1.807 1.847 3.93 1.847 6.102v3.669"/><path d="m56 52v3.669c0 2.172.643 4.295 1.847 6.102l.153.229.153-.229c1.204-1.807 1.847-3.93 1.847-6.102v-3.669"/></g><path d="m2 12h8v40h-8z" fill="#c18e59"/><path d="m54 12h8v40h-8z" fill="#c18e59"/><path d="m10 53h-8c-.552 0-1-.447-1-1v-40c0-.552.448-1 1-1h8c.552 0 1 .448 1 1v40c0 .553-.448 1-1 1zm-7-2h6v-38h-6z"/><path d="m9 12h-2v-3.669c0-1.522-.343-3.007-1-4.36-.657 1.354-1 2.838-1 4.36v3.669h-2v-3.669c0-2.378.697-4.68 2.016-6.656l.152-.228c.371-.558 1.294-.558 1.665 0l.152.229c1.318 1.975 2.015 4.277 2.015 6.655z"/><path d="m6 63c-.334 0-.646-.167-.832-.445l-.152-.229c-1.319-1.977-2.016-4.279-2.016-6.656v-3.67h2v3.67c0 1.521.343 3.006 1 4.36.657-1.354 1-2.839 1-4.36v-3.67h2v3.67c0 2.377-.697 4.679-2.016 6.656l-.152.229c-.186.278-.498.445-.832.445z"/><path d="m62 53h-8c-.552 0-1-.447-1-1v-40c0-.552.448-1 1-1h8c.552 0 1 .448 1 1v40c0 .553-.448 1-1 1zm-7-2h6v-38h-6z"/><path d="m61 12h-2v-3.669c0-1.522-.343-3.007-1-4.36-.657 1.354-1 2.838-1 4.36v3.669h-2v-3.669c0-2.378.697-4.68 2.016-6.656l.152-.228c.371-.558 1.294-.558 1.665 0l.152.229c1.318 1.975 2.015 4.277 2.015 6.655z"/><path d="m58 63c-.334 0-.646-.167-.832-.445l-.152-.229c-1.319-1.977-2.016-4.279-2.016-6.656v-3.67h2v3.67c0 1.521.343 3.006 1 4.36.657-1.354 1-2.839 1-4.36v-3.67h2v3.67c0 2.377-.697 4.679-2.016 6.656l-.152.229c-.186.278-.498.445-.832.445z"/><path d="m42 20c-.057 0-.113-.005-.171-.015-.407-.07-.729-.384-.81-.789l-.839-4.196h-30.18v-2h31c.477 0 .887.336.98.804l.493 2.464 1.669-2.782c.181-.302.507-.486.858-.486h9v2h-8.434l-2.709 4.515c-.182.304-.51.485-.857.485z"/><path d="m13 17h19v2h-19z"/><path d="m13 21h19v2h-19z"/><path d="m13 25h19v2h-19z"/><path d="m13 29h19v2h-19z"/><path d="m32 33h19v2h-19z"/><path d="m32 37h19v2h-19z"/><path d="m32 41h19v2h-19z"/><path d="m32 45h19v2h-19z"/><path d="m54 51h-31c-.477 0-.887-.337-.98-.804l-.493-2.464-1.669 2.782c-.181.301-.507.486-.858.486h-9v-2h8.434l2.709-4.515c.212-.354.619-.541 1.028-.471.407.07.729.384.81.789l.839 4.197h30.18z"/></svg>